<svg width="27" height="21" viewBox="0 0 27 21" fill="none" xmlns="http://www.w3.org/2000/svg">
<path d="M22.8567 1.67953C21.1355 0.9033 19.2905 0.329562 17.3612 0.00331887C17.344 2.03417e-05 17.3262 0.00214603 17.3103 0.00940199C17.2944 0.0166579 17.2811 0.0286852 17.2723 0.043818C17.0361 0.458934 16.7728 1.00005 16.5883 1.42754C14.5421 1.12181 12.4618 1.12181 10.4156 1.42754C10.2101 0.953767 9.97834 0.491811 9.72146 0.043818C9.71275 0.0284989 9.69958 0.0161996 9.6837 0.0085614C9.66782 0.000923228 9.64999 -0.00169063 9.63258 0.00106881C7.70438 0.327312 5.85942 0.90105 4.13708 1.67841C4.12226 1.68462 4.1097 1.69522 4.10108 1.70878C0.600153 6.85555 -0.359452 11.8752 0.111913 16.8318C0.113225 16.844 0.116993 16.8557 0.122989 16.8664C0.128984 16.877 0.137081 16.8863 0.146788 16.8937C2.19019 18.3814 4.46932 19.5147 6.88877 20.2461C6.90563 20.2513 6.92367 20.2513 6.94053 20.2461C6.95739 20.2409 6.97228 20.2307 6.98327 20.2169C7.50301 19.5194 7.9665 18.7825 8.36249 18.0086C8.38611 17.9636 8.36361 17.9096 8.31636 17.8916C7.58963 17.6179 6.88549 17.2876 6.21041 16.9038C6.19828 16.8969 6.18806 16.8871 6.18066 16.8752C6.17326 16.8634 6.16893 16.8499 6.16803 16.8359C6.16714 16.822 6.16972 16.8081 6.17555 16.7954C6.18137 16.7827 6.19026 16.7716 6.20141 16.7632C6.34315 16.6586 6.4849 16.5495 6.6199 16.4403C6.63205 16.4305 6.64669 16.4243 6.66218 16.4223C6.67767 16.4203 6.69341 16.4227 6.70765 16.4291C11.1254 18.4135 15.91 18.4135 20.276 16.4291C20.2903 16.4223 20.3062 16.4196 20.3219 16.4214C20.3376 16.4232 20.3525 16.4294 20.3649 16.4392C20.4999 16.5495 20.6405 16.6586 20.7833 16.7632C20.7946 16.7714 20.8036 16.7823 20.8096 16.7949C20.8157 16.8075 20.8185 16.8214 20.8178 16.8353C20.8171 16.8493 20.813 16.8628 20.8058 16.8748C20.7986 16.8867 20.7886 16.8967 20.7766 16.9038C20.1039 17.2908 19.4041 17.6182 18.6695 17.8904C18.6582 17.8945 18.648 17.901 18.6394 17.9094C18.6308 17.9178 18.6241 17.9279 18.6197 17.9391C18.6153 17.9502 18.6134 17.9622 18.6141 17.9742C18.6147 17.9862 18.6179 17.9979 18.6234 18.0086C19.0284 18.7814 19.4919 19.5172 20.0015 20.2158C20.0121 20.2301 20.0268 20.2408 20.0438 20.2465C20.0607 20.2521 20.0789 20.2524 20.096 20.2473C22.5196 19.5179 24.8024 18.384 26.8481 16.8937C26.8581 16.8867 26.8664 16.8777 26.8727 16.8672C26.8789 16.8567 26.8828 16.8451 26.8841 16.833C27.4466 11.1023 25.9414 6.12319 22.8916 1.71103C22.8841 1.69669 22.8717 1.68552 22.8567 1.67953ZM9.02285 13.8135C7.69313 13.8135 6.59627 12.6109 6.59627 11.1361C6.59627 9.66011 7.67175 8.45864 9.02285 8.45864C10.3841 8.45864 11.4708 9.67024 11.4494 11.1361C11.4494 12.612 10.3739 13.8135 9.02285 13.8135ZM17.9945 13.8135C16.6637 13.8135 15.568 12.6109 15.568 11.1361C15.568 9.66011 16.6423 8.45864 17.9945 8.45864C19.3558 8.45864 20.4425 9.67024 20.4211 11.1361C20.4211 12.612 19.3569 13.8135 17.9945 13.8135Z" fill="#A33327"/>
</svg>
