<svg width="27" height="22" viewBox="0 0 27 22" fill="none" xmlns="http://www.w3.org/2000/svg">
<path d="M24.3001 19.25H21.6001V7.21875L13.5001 12.375L5.40009 7.21875V19.25H2.70009V2.75H4.32009L13.5001 8.59375L22.6801 2.75H24.3001V19.25ZM24.3001 0H2.70009C1.20159 0 9.15527e-05 1.22375 9.15527e-05 2.75V19.25C9.15527e-05 19.9793 0.284555 20.6788 0.790903 21.1945C1.29725 21.7103 1.98401 22 2.70009 22H24.3001C25.0162 22 25.7029 21.7103 26.2093 21.1945C26.7156 20.6788 27.0001 19.9793 27.0001 19.25V2.75C27.0001 2.02065 26.7156 1.32118 26.2093 0.805456C25.7029 0.289731 25.0162 0 24.3001 0Z" fill="#A33327"/>
</svg>
