<svg width="27" height="27" viewBox="0 0 27 27" fill="none" xmlns="http://www.w3.org/2000/svg">
<path fill-rule="evenodd" clip-rule="evenodd" d="M27 13.5C27 20.9553 20.9554 26.9999 13.5001 26.9999C6.0447 26.9999 9.15527e-05 20.9553 9.15527e-05 13.5C9.15527e-05 6.04461 6.0447 0 13.5001 0C20.9554 0 27 6.04461 27 13.5ZM13.9838 9.96635C12.6709 10.512 10.0463 11.6426 6.11107 13.3571C5.47208 13.6113 5.13683 13.86 5.10645 14.103C5.0547 14.5147 5.56995 14.6767 6.2697 14.8961C6.36532 14.9265 6.46432 14.9568 6.56557 14.9906C7.2552 15.2145 8.18219 15.4766 8.66369 15.4867C9.10132 15.4957 9.58957 15.3157 10.1284 14.9467C13.8049 12.4638 15.7028 11.2095 15.822 11.1825C15.9064 11.1633 16.0234 11.1386 16.1022 11.2095C16.1809 11.2792 16.173 11.412 16.1652 11.448C16.1134 11.6651 14.0952 13.5427 13.0489 14.5147C12.7227 14.8173 12.4921 15.0322 12.4448 15.0817C12.3391 15.1908 12.2311 15.2955 12.1276 15.3956C11.4863 16.0121 11.0071 16.4756 12.1546 17.2316C12.7058 17.595 13.1468 17.8953 13.5867 18.1946C14.0671 18.5219 14.5463 18.8482 15.1673 19.2554C15.3248 19.3589 15.4755 19.4658 15.6229 19.5704C16.182 19.9698 16.6849 20.3276 17.3059 20.2713C17.6659 20.2376 18.0394 19.8989 18.2284 18.8876C18.675 16.4958 19.5548 11.3163 19.7584 9.1811C19.7708 9.00382 19.7633 8.8257 19.7359 8.6501C19.7195 8.50827 19.6505 8.37777 19.5424 8.28448C19.3815 8.15285 19.1318 8.12473 19.0193 8.12698C18.5119 8.13598 17.7334 8.4071 13.9838 9.96635Z" fill="#A33327"/>
</svg>
